<svg xmlns="http://www.w3.org/2000/svg" viewBox="0 0 1281 429.04"><path d="M356.09,0c-14.44,1.19-9.46,11.92-12,19.6-52.42,18.25-174.17,75.61-217.79,84-31.71,4.33-63,9.62-98.81,9.29-2.43,6.09-14,16.9-6.9,19.6,3.7,3.7,3.8,6.5.3,15-5,3.9-2.16,33.45-3.5,44.6C-7,204.35.75,266.07,2.79,285.3c27.82,53.64,59.56,48.08,170.6,56-8.93-63.93,39.82-127.56,107.7-125.2,72.73-3,120.53,69.29,106.3,136.3,82.82,21,580.38-1.23,600,5.72-3.33-11.12-4.13-15.21-4.2-34-4.89-126.24,186-146.83,213-27,11,69.73-25.18,63.31,65.41,48.49,23.85-12,8.82-44.65,13.89-63.9,48.76-160.36-239.16-137.85-349.7-153.12C823.38,102.42,736.1,1.94,600.09,5.41,537.87-1.5,414.41,16.39,356.09,0Zm188.5,33.3c1.89,14.7,14.49,87.91,15.9,101.7-28.22-12.44-318.67,35-262.21-67C333,42.74,501.57,11,544.59,33.3Zm63-4.7c68,4.09,150.85,27.95,203.5,75.8-16.21,1.74-21.58,17.91-15.5,31.2-45.19-.09-136.12-.32-181.3-.5-10.9-28.23-35.18-101.33-35.7-107.6C578.59,26.9,588.09,27.3,607.59,28.6Z"/><path d="M262.89,221.1c-135.54,25.06-96.5,231.49,39.21,205C433.32,401.11,394,196.11,262.89,221.1Zm35,30.1c74,14.29,75.75,129,1.2,145C180.94,422.09,179.29,227.08,297.89,251.2Z"/><path d="M259.59,263.9a69,69,0,0,0-15.3,7.9c4.38,4.07,23.13,24,24.7,22.5C270.09,291.83,276.88,250,259.59,263.9Z"/><path d="M291.59,277.5c-4.13,37,13.71,2.72,26.11-5.4-5.87-5.4-17.41-9.7-26.11-10.8Z"/><path d="M227.79,288.8c-2.8,3.6-9.2,19.1-9.2,22.5,0,1,3.4,1.3,16.5,1.3,15.1,0,16.5-.1,16.5-1.8C250.65,309.66,230.31,283.58,227.79,288.8Z"/><path d="M321.79,298.5c-31.19,22.82,13.89,12.64,21.8,12.81C338.72,299.51,338.68,276.68,321.79,298.5Z"/><path d="M277.69,300.4c-1.59,3.85,3.59,9.05,6.3,4C287.51,299.8,280.22,296.39,277.69,300.4Z"/><path d="M274.49,317.5c-8.86,8.36,5.18,22.25,13.7,12.4C296.12,321.48,282.55,308.71,274.49,317.5Z"/><path d="M256.59,321.1c-2.6,3.2,1.3,8.1,4.8,5.9C266.8,323.82,259.76,316.71,256.59,321.1Z"/><path d="M300.19,321.2c-5.51,4.78,5.16,9.38,6.2,3.6C307.09,320.4,303.19,318.1,300.19,321.2Z"/><path d="M218.59,336.1c.18,4.78,6.24,18.7,10.3,24.7,8-12.34,43.14-30.45,6.1-26.2C220.89,334.6,218.59,334.8,218.59,336.1Z"/><path d="M310.59,336.4c.5,2.66,18.14,19.8,22.8,24.5,4-6,10-19.81,10.2-24.9C347.65,334.31,305.3,333.44,310.59,336.4Z"/><path d="M277.59,343.5c-.7,1.5-.5,2.4.8,4.1C288,355.4,285.79,335,277.59,343.5Z"/><path d="M255.79,363.9c-23,16.49-.53,16.82,13.7,22.7C269.28,376.51,278.57,333.14,255.79,363.9Z"/><path d="M292.89,353.3c-3.34,28.2-5.71,43.38,24.7,22.5C316.59,374.77,295,350,292.89,353.3Z"/><path d="M1069.59,221.7c-137.09,27.34-84.78,240.9,49,202.8C1245.94,390.61,1197.65,193.69,1069.59,221.7Zm44.5,31.3c89.17,27.35,48.3,168.12-42,143C975.4,371,1020.11,221.9,1114.09,253Z"/><path d="M1069.89,263.6c-5.4,1.9-15.3,7.1-15.3,8,8.11,4.61,31.67,44.93,26,6C1079.93,268.54,1084.61,256.71,1069.89,263.6Z"/><path d="M1101.59,277.5c-6.1,38.42,19.71-1.08,25-6.4C1113.05,264.9,1097.71,250.51,1101.59,277.5Z"/><path d="M1036.19,291.2c-4.06,14.09-20.25,24.07,8.9,21.4,24.63-.16,17.75.69,5.1-13.9C1047.12,297.77,1038.28,281.18,1036.19,291.2Z"/><path d="M1130.89,298.8c-29.26,21.76,14.31,12.09,22.7,12.9C1147.84,297,1147.14,276.39,1130.89,298.8Z"/><path d="M1087.79,299.8c-3.23,2.25,1.63,8.07,4.8,5.8C1097.88,302.22,1091.65,296.2,1087.79,299.8Z"/><path d="M1084.19,317.7c-6.8,8.1,1.7,19.4,11,14.4C1108.36,325.34,1093.55,307,1084.19,317.7Z"/><path d="M1066.59,321c-5.47,8.74,12,7.84,5.4.2C1070.09,319.2,1068.19,319.2,1066.59,321Z"/><path d="M1110.19,320.9c-6.7,7.9,11.54,8.37,4.8,0C1112.54,319.25,1112.64,319.25,1110.19,320.9Z"/><path d="M1028.59,336.6c.2,4.59,6.24,18.36,10.2,24.3C1072.45,330.58,1063.72,331.5,1028.59,336.6Z"/><path d="M1120.29,335.8c.55.21,23,32.22,25.4,20.5C1165.33,325.43,1138.57,335.1,1120.29,335.8Z"/><path d="M1087.69,343.5c-3.56,6.15,7.67,8.34,6.7,1.2A3.58,3.58,0,0,0,1087.69,343.5Z"/><path d="M1065.79,363.9c-22.74,16.38-1.25,17,13.5,22.7C1079.59,378.22,1088.54,332.45,1065.79,363.9Z"/><path d="M1102.89,353.3c-2.12,20.65-8.51,45.2,23.4,23.5C1127.89,375.8,1104.69,352.6,1102.89,353.3Z"/></svg>