<svg id="Layer_1" data-name="Layer 1" xmlns="http://www.w3.org/2000/svg" viewBox="0 0 444.18 511.98"><defs><style>.cls-1{fill:red;}.cls-2{fill:#fff;}</style></defs><path class="cls-1" d="M95,496.59v46.55q0,60.75,0,121.48c0,7.6-3.59,12.16-9.55,12.16S76,672.35,76,664.56q-.06-69.73,0-139.48V264.63q0-43.74,0-87.48c0-.84,0-1.67.06-2.5.43-5.57,4.52-9.68,9.57-9.64s10,4.24,9.23,9.75c-1.21,8.92,3.5,12.5,10.42,16,30,15,61.66,20.49,95,17.61,32.74-2.83,63.93-12.56,95.5-20.72,25.61-6.62,51.15-13.72,77.07-18.9,26.29-5.25,52.91-5.5,79.33,1,25.15,6.21,46.38,19.06,64.35,37.35,2.33,2.37,3.42,6.88,3.45,10.42.27,34.15.2,68.32.19,102.48q0,89,0,178c0,1.66,0,3.33,0,5,0,4.23-1.83,7.42-5.73,9.16s-7.48.75-10.62-2c-4.4-3.83-8.63-7.86-13.2-11.47-24.43-19.29-52.61-26-83.25-25.07-33.17,1-64.63,10.05-96.29,18.74-27.43,7.53-55,14.93-82.83,20.52-44.92,9-88.86,5.87-130.39-15.49A20.23,20.23,0,0,0,95,496.59ZM433,253.92c-22.57-2.4-44.88-.31-67.06,4v-68a20,20,0,0,0-4.1,0c-20.44,5.31-40.88,10.64-61.26,16.18-1.16.31-2.54,2.54-2.55,3.89-.11,21.64,0,43.29,0,64.94l-1.46.34-66.7,16.6a18.28,18.28,0,0,0,.46-2.92q0-30.5,0-61a18.23,18.23,0,0,0-.29-2.82l-67.38,3.73V296c-24.21-2-46.19-9.52-67.66-21.16,0,22.83,0,44.63.09,66.42a4.7,4.7,0,0,0,2.14,3.36,164.49,164.49,0,0,0,65.84,20.18l-.33,61.92c0,2,0,3.92,0,6.33-24.32-1.93-46.3-9.39-67.21-20.82a13.09,13.09,0,0,0-.5,2.13c0,18.82-.07,37.64.16,56.46a6.48,6.48,0,0,0,3.1,4.83c13.06,5.73,26.09,11.64,39.5,16.45,7.71,2.77,16.11,3.59,25.19,5.5V435.06l67.41-4.21v61.59a8.17,8.17,0,0,0,2.12.25c21-5.3,41.93-10.56,62.83-16.1,1.18-.31,2.53-2.85,2.54-4.37.15-20.15.07-40.3.05-60.45,1.13-.18,2.29-.26,3.39-.55,15-3.94,29.89-8,44.88-11.81,6.19-1.58,12.51-2.66,19.63-4.15v62l67.09-3.74V390.82A176.46,176.46,0,0,1,501,412.33c0-22.87,0-44.67-.12-66.48a5,5,0,0,0-2.62-3.56c-12.1-5-24.09-10.48-36.53-14.48-9.27-3-19.17-4-28.79-5.89.11-5.79.32-11.59.3-17.38-.05-16.91-.2-33.82-.31-50.73a171.55,171.55,0,0,1,68,21.41c0-19,0-37-.09-54.89a6,6,0,0,0-2-3.7c-17.49-16.69-38.39-26.52-62.14-30.52a20.37,20.37,0,0,0-3.69.14Z" transform="translate(-75.91 -164.8)"/><path class="cls-2" d="M229.92,291.91l66.7-16.6,1.46-.34-.15-.15v68.49c2.43-.58,3.87-.9,5.29-1.28,14.62-3.86,29.19-7.88,43.86-11.54,6.24-1.56,12.67-2.36,19-3.51l-.17-.14V395c22.6-4.44,44.77-6.05,67.12-4.06l-.12-.13v62.66l-67.09,3.74v-62c-7.12,1.49-13.44,2.57-19.63,4.15-15,3.82-29.92,7.87-44.88,11.81-1.1.29-2.26.37-3.39.55l.14.17V344.31l-68.16,16.54.13.1q0-34.56,0-69.13Z" transform="translate(-75.91 -164.8)"/><path class="cls-2" d="M297.94,411.77c0,20.15.1,40.3-.05,60.45,0,1.52-1.36,4.06-2.54,4.37-20.9,5.54-41.87,10.8-62.83,16.1a8.17,8.17,0,0,1-2.12-.25V430.85L163,435.06v62.56c-9.08-1.91-17.48-2.73-25.19-5.5-13.41-4.81-26.44-10.72-39.5-16.45a6.48,6.48,0,0,1-3.1-4.83C95,452,95,433.2,95,414.38a13.09,13.09,0,0,1,.5-2.13c20.91,11.43,42.89,18.89,67.21,20.82,0-2.41,0-4.37,0-6.33l.33-61.92-.14.13c8.82.1,17.68.76,26.45.16,13.58-.93,27.11-2.73,40.66-4.16l-.13-.1c.16,2,.46,3.94.46,5.91q.06,28.19,0,56.36v6.81l67.68-18Z" transform="translate(-75.91 -164.8)"/><path class="cls-2" d="M163.08,364.82a164.49,164.49,0,0,1-65.84-20.18,4.7,4.7,0,0,1-2.14-3.36C95,319.49,95,297.69,95,274.86,116.48,286.5,138.46,294,162.67,296v-67.1l67.38-3.73a18.23,18.23,0,0,1,.29,2.82q.06,30.5,0,61a18.28,18.28,0,0,1-.46,2.92l.12-.09a22.62,22.62,0,0,1-2.82.92,250.84,250.84,0,0,1-58.54,4c-1.75-.08-3.52,0-5.74,0V365Z" transform="translate(-75.91 -164.8)"/><path class="cls-2" d="M432.93,321.92c9.62,1.89,19.52,2.91,28.79,5.89,12.44,4,24.43,9.46,36.53,14.48a5,5,0,0,1,2.62,3.56c.16,21.81.12,43.61.12,66.48a176.46,176.46,0,0,0-68.06-21.51l.12.13V321.82Z" transform="translate(-75.91 -164.8)"/><path class="cls-2" d="M298.08,275c-.05-21.65-.14-43.3,0-64.94,0-1.35,1.39-3.58,2.55-3.89C321,200.6,341.42,195.27,361.86,190a20,20,0,0,1,4.1,0v68l.11-.12c-5.84,1.3-11.72,2.44-17.51,3.91-16.89,4.29-33.76,8.72-50.63,13.09Z" transform="translate(-75.91 -164.8)"/><path class="cls-2" d="M432.92,253.81c.11,16.91.26,33.82.31,50.73,0,5.79-.19,11.59-.3,17.38l.12-.1c-4.62,0-9.25.06-13.87,0-17.94-.33-35.73,1-53.25,5l.17.14c-.17-11.11-.47-22.22-.47-33.34,0-11.94.28-23.88.44-35.82l-.11.12c22.18-4.33,44.49-6.42,67.06-4Z" transform="translate(-75.91 -164.8)"/><path class="cls-2" d="M433,253.92V186.25a20.37,20.37,0,0,1,3.69-.14c23.75,4,44.65,13.83,62.14,30.52a6,6,0,0,1,2,3.7c.13,17.93.09,35.86.09,54.89a171.55,171.55,0,0,0-68-21.41Z" transform="translate(-75.91 -164.8)"/><path class="cls-1" d="M366.07,257.82c-.16,11.94-.44,23.88-.44,35.82,0,11.12.3,22.23.47,33.34-6.35,1.15-12.78,1.95-19,3.51-14.67,3.66-29.24,7.68-43.86,11.54-1.42.38-2.86.7-5.29,1.28V274.82c16.87-4.37,33.74-8.8,50.63-13.09C354.35,260.26,360.23,259.12,366.07,257.82Z" transform="translate(-75.91 -164.8)"/><path class="cls-1" d="M298.08,411.94l-67.68,18v-6.81q0-28.19,0-56.36c0-2-.3-3.94-.46-5.91l68.16-16.54Z" transform="translate(-75.91 -164.8)"/><path class="cls-1" d="M365.93,326.84c17.52-4.09,35.31-5.38,53.25-5,4.62.09,9.25,0,13.87,0V391c-22.35-2-44.52-.38-67.12,4.06Z" transform="translate(-75.91 -164.8)"/><path class="cls-1" d="M162.94,365v-68.2c2.22,0,4-.07,5.74,0a250.84,250.84,0,0,0,58.54-4,22.62,22.62,0,0,0,2.82-.92q0,34.57,0,69.13c-13.55,1.43-27.08,3.23-40.66,4.16C180.62,365.71,171.76,365.05,162.94,365Z" transform="translate(-75.91 -164.8)"/></svg>